<?xml version="1.0" encoding="UTF-8" standalone="no"?>
<svg
   xmlns:dc="http://purl.org/dc/elements/1.1/"
   xmlns:cc="http://creativecommons.org/ns#"
   xmlns:rdf="http://www.w3.org/1999/02/22-rdf-syntax-ns#"
   xmlns:svg="http://www.w3.org/2000/svg"
   xmlns="http://www.w3.org/2000/svg"
   xmlns:sodipodi="http://sodipodi.sourceforge.net/DTD/sodipodi-0.dtd"
   xmlns:inkscape="http://www.inkscape.org/namespaces/inkscape"
   version="1.1"
   id="svg10"
   width="255"
   height="237"
   viewBox="0 0 255 237"
   sodipodi:docname="Signature.svg"
   inkscape:version="1.0.1 (3bc2e813f5, 2020-09-07)">
  <metadata
     id="metadata16">
    <rdf:RDF>
      <cc:Work
         rdf:about="">
        <dc:format>image/svg+xml</dc:format>
        <dc:type
           rdf:resource="http://purl.org/dc/dcmitype/StillImage" />
        <dc:title></dc:title>
      </cc:Work>
    </rdf:RDF>
  </metadata>
  <defs
     id="defs14" />
  <sodipodi:namedview
     pagecolor="#ffffff"
     bordercolor="#666666"
     borderopacity="1"
     objecttolerance="10"
     gridtolerance="10"
     guidetolerance="10"
     inkscape:pageopacity="0"
     inkscape:pageshadow="2"
     inkscape:window-width="1440"
     inkscape:window-height="837"
     id="namedview12"
     showgrid="false"
     inkscape:zoom="2.649789"
     inkscape:cx="127.5"
     inkscape:cy="133.59554"
     inkscape:window-x="1432"
     inkscape:window-y="-8"
     inkscape:window-maximized="1"
     inkscape:current-layer="g18" />
  <g
     inkscape:groupmode="layer"
     inkscape:label="Image"
     id="g18">
    <path
       id="path22"
       style="fill:#000000"
       d="M 159.79492 8.5996094 C 159.42196 8.6143625 159.04188 8.6504875 158.65625 8.7089844 C 154.7221 9.3057628 150.17552 12.145809 145.98438 16.542969 C 141.8127 20.919689 137.9933 26.839706 135.47852 33.626953 C 133.89723 37.894764 130.91441 45.211719 128.84961 49.886719 C 126.78481 54.561719 123.79824 63.111719 122.21289 68.886719 C 118.43819 82.636844 115.57853 89.702553 113.54492 90.304688 C 112.63848 90.573075 104.4677 90.779259 95.388672 90.761719 C 91.96924 90.755109 89.177729 90.766409 86.789062 90.818359 C 79.040756 90.986862 75.543238 91.575705 68.707031 93.308594 C 55.626121 96.624433 54.162578 96.585276 51.017578 92.847656 C 46.791768 87.82557 48.176184 80.579189 54.808594 73.001953 C 56.824184 70.699192 56.826944 70.652854 54.896484 71.666016 C 52.171184 73.096336 48.17432 77.603135 45.5625 82.193359 C 42.42191 87.712884 42.570102 95.415374 45.882812 98.873047 L 48.369141 101.4668 L 41.771484 105.42773 C 36.702804 108.47053 33.719732 111.30227 28.888672 117.6543 C 22.734752 125.74565 22.587999 126.08516 21.912109 133.7207 C 21.312099 140.49881 21.559797 142.62779 23.810547 149.95508 C 26.263437 157.94046 26.864967 158.87522 35.148438 167.57617 C 43.042668 175.86828 45.220081 177.48263 57.457031 184.13281 C 69.855211 190.87061 72.682031 191.94774 90.457031 196.7168 L 109.89648 201.93359 L 125.64648 201.91016 C 134.30898 201.89731 141.39648 202.15909 141.39648 202.49219 C 141.39648 202.8253 140.31633 204.38215 138.99609 205.95117 C 136.06699 209.43221 134.75166 217.40505 136.32227 222.16406 C 137.41313 225.46938 143.01151 231.59076 146.89648 233.72656 C 149.89426 235.37462 151.87917 235.1158 153.9707 232.80469 C 155.81712 230.76442 155.81638 230.70123 153.93164 229.64648 C 149.72814 227.29408 143.43434 220.53348 142.32812 217.18164 C 141.04706 213.29996 141.72166 205.40458 143.51953 203.23828 C 144.3814 202.19979 148.61007 201.88672 161.80273 201.88672 L 178.96484 201.88672 L 192.42969 196.98828 C 205.55347 192.21339 206.10208 191.89233 214.00586 184.42578 C 223.46172 175.49304 225.8413 170.74314 223.01758 166.43359 C 222.10016 165.03345 220.91037 163.88672 220.37305 163.88672 C 219.83573 163.88672 219.39648 163.26743 219.39648 162.50977 C 219.39648 161.75212 218.77127 160.61409 218.00781 159.98047 C 216.92276 159.07996 215.96187 159.3802 213.60742 161.36133 C 211.33915 163.26995 209.02789 164.04141 204.24609 164.48047 C 200.75369 164.80114 195.07883 166.21893 191.63477 167.63086 C 186.37728 169.78624 184.96445 170.01049 182.82812 169.03711 C 180.28231 167.87714 180.31178 165.88672 182.875 165.88672 C 183.62345 165.88672 188.67003 163.29922 194.08984 160.13672 C 200.68077 156.29086 206.36047 152.65547 211.0957 149.25781 C 223.47816 140.37305 229.40819 133.12057 228.32227 128.03125 C 227.67363 124.99133 224.96187 121.53721 220.55664 117.92578 C 213.92381 112.48815 203.45087 106.6956 190.39648 101.43164 C 182.74523 98.346403 172.11047 95.599105 161.19727 93.677734 C 150.82289 91.851229 140.19678 90.771159 131.64648 90.855469 C 125.45898 90.916479 120.40316 90.610033 120.41016 90.175781 C 120.41726 89.741528 123.67976 87.264701 127.66016 84.669922 C 137.33509 78.362936 153.80946 61.430468 160.04492 51.386719 C 163.6064 45.650071 165.92856 40.46171 167.21875 35.105469 C 168.18685 31.086385 168.57394 26.973539 168.46875 22.462891 C 168.32722 16.39399 167.8236 13.890085 166.31641 11.773438 C 164.68353 9.4802848 162.40564 8.4963376 159.79492 8.5996094 z M 154.04297 14.056641 C 154.38067 14.040138 154.71969 14.045881 155.06055 14.074219 C 162.17486 14.66569 164.70552 22.945586 162.82422 33.865234 C 161.6021 40.958859 158.51772 49.165937 153.61719 57.103516 C 147.69351 66.698334 140.78234 73.638366 129.18359 81.636719 C 124.99631 84.524219 121.31263 86.886719 120.99805 86.886719 C 120.68346 86.886719 121.36897 84.524219 122.52148 81.636719 C 123.67399 78.749219 126.10929 70.986719 127.93359 64.386719 C 129.75788 57.786719 133.00954 48.561719 135.16016 43.886719 C 137.31078 39.211719 140.11293 32.236719 141.38672 28.386719 C 144.31093 19.54835 148.9775 14.304174 154.04297 14.056641 z M 170.37109 70.966797 C 169.86232 71.031138 169.22353 71.654011 167.96484 72.896484 C 165.44886 75.380054 165.43952 75.445135 167.11719 79.146484 C 169.03013 83.366913 170.2961 83.760126 172.85938 80.927734 C 174.79507 78.788822 174.48733 75.735277 171.99609 72.386719 C 171.25946 71.396583 170.87986 70.902456 170.37109 70.966797 z M 90.845703 94.875 C 103.79076 94.888887 105.45462 96.159495 94.822266 97.912109 C 91.628884 98.438499 86.951411 98.891083 82.216797 99.210938 C 73.404859 99.806289 64.396484 99.938348 64.396484 99.212891 C 64.396484 97.624138 73.53227 95.803629 83.353516 95.136719 C 85.853102 94.966982 88.396693 94.8724 90.845703 94.875 z M 126.64258 95.078125 C 132.00055 95.166994 140.21694 96.187167 152.5 98.275391 C 170.34571 101.30931 174.44336 102.37473 185.26367 106.78906 C 192.75383 109.8448 199.25392 112.97149 204.63477 116.07812 C 214.96117 122.04008 221.16429 127.92755 222.32812 133.08789 C 222.99278 136.03493 222.71708 137.01243 220.50391 139.54688 C 214.61384 146.29195 193.24013 159.09217 183.24023 161.86328 C 179.22379 162.97629 175.17102 163.88672 174.23633 163.88672 C 173.30163 163.88672 169.80599 161.28684 166.4668 158.10938 L 160.39453 152.33203 L 160.61719 143.63086 C 160.89851 132.58699 159.8645 131.21949 154.94727 136.13672 C 151.67682 139.40717 151.39904 140.14778 151.43164 145.53711 C 151.45112 148.75461 152.06319 152.46226 152.79102 153.77539 C 153.79474 155.58624 153.86614 157.15616 153.08984 160.27539 C 152.0127 164.60345 150.94311 165.84589 148.27539 165.87109 C 146.87985 165.88427 146.78081 165.22632 147.56445 161.13672 C 148.3837 156.86131 148.64331 149.83764 148.45898 136.96289 L 148.39648 132.53906 L 146.02539 134.76562 C 143.82218 136.83543 143.61861 137.92869 143.15234 150.18945 C 142.87632 157.44754 142.3621 164.06172 142.01172 164.88672 C 141.53633 166.00608 140.11224 166.29895 136.39844 166.04102 C 131.82085 165.7231 131.02352 165.2593 126.44531 160.25 C 123.49477 157.02164 121.44387 153.58355 120.29883 149.9707 C 118.35265 143.8301 119.02043 137.18298 122.32617 130.19531 C 124.91991 124.71266 125.65629 123.92791 128.75977 123.3457 C 130.68738 122.98408 132.98836 121.88969 133.87305 120.91211 C 135.34715 119.28377 135.34759 119.08237 133.88086 118.51953 C 130.9135 117.38085 124.49265 121.69664 121.00195 127.17578 C 115.40839 135.95565 114.15291 139.0613 113.6543 145.3418 C 113.25886 150.3227 113.6029 154.02016 115.0293 157.40234 C 116.17884 160.12805 118.02989 162.64823 120.76367 165.4707 C 125.55286 170.41527 126.39608 170.88834 130.45312 170.90234 C 133.69053 170.9135 134.48936 171.18045 133.39648 171.88672 C 132.57148 172.41988 127.59645 172.86309 122.3418 172.87109 C 112.84655 172.88631 112.76932 172.86679 109.74219 169.63672 C 108.06701 167.84922 103.89239 162.65184 100.46484 158.08789 L 94.232422 149.79102 L 98.166016 143.51758 C 105.35576 132.05065 111.52744 117.83433 114.28516 106.38672 L 116.93555 95.386719 L 124.51758 95.097656 C 125.16994 95.072759 125.87715 95.065429 126.64258 95.078125 z M 112.07617 95.234375 C 112.21285 95.371058 110.82228 101.53675 108.98633 108.93555 C 106.57621 118.64815 104.06905 125.64564 99.966797 134.11133 C 96.841817 140.56026 93.896342 146.07861 93.419922 146.37305 C 92.943492 146.6675 89.367909 142.67013 85.474609 137.49023 C 81.581319 132.31033 76.142822 126.18481 73.388672 123.87891 C 69.180352 120.3555 67.623782 119.66084 63.638672 119.52539 C 53.473572 119.17988 43.432749 125.58867 38.787109 135.38672 C 36.931189 139.301 36.41425 142.06958 36.40625 148.13672 C 36.396514 155.85774 35.067902 157.60455 32.978516 153.72266 C 31.934606 151.78317 30.701958 148.43805 29.347656 143.73242 C 27.517014 137.37171 27.264392 134.78951 27.857422 128.46094 C 28.491892 121.69023 28.987082 120.32172 32.326172 116.11719 C 34.415432 113.48641 39.437025 109.27264 43.640625 106.62305 C 50.453885 102.32854 51.476992 101.96703 54.044922 102.94336 C 57.309002 104.18436 73.527223 104.38794 86.039062 103.3457 C 92.741823 102.78736 96.398266 101.82116 103.19336 98.810547 C 107.94269 96.706324 111.93948 95.097692 112.07617 95.234375 z M 59.375 124.1543 C 59.986829 124.15158 60.508365 124.20042 60.916016 124.30273 C 63.058981 124.84057 68.250929 129.51864 73.480469 135.23828 C 76.989798 139.0765 80.516368 143.38403 83.152344 147.22266 C 88.26723 154.6712 88.358571 154.92462 86.556641 156.72656 C 83.543541 159.73966 76.199903 164.42516 71.783203 166.15234 C 69.459073 167.0612 64.890793 167.74114 61.283203 167.71484 C 52.304916 167.64946 46.963739 165.57835 44.134766 160.20117 C 42.270037 156.65678 41.495834 151.67629 41.490234 144.88672 C 41.485564 139.16914 42.033979 136.1872 43.792969 132.33984 C 45.979109 127.55819 46.418203 127.19691 52.158203 125.45898 C 54.901486 124.6284 57.539512 124.16244 59.375 124.1543 z M 89.466797 156.89844 C 90.108927 156.8855 100.39648 170.47118 100.39648 171.33203 C 100.39648 172.21709 84.4535 171.72564 78.15625 170.64648 L 72.416016 169.66211 L 80.65625 163.28711 C 85.1884 159.78006 89.153657 156.90444 89.466797 156.89844 z M 157.35742 160.92773 C 157.65345 160.95008 159.37534 162.23372 161.18359 163.78125 L 164.47266 166.5957 L 157.02148 168.07812 L 149.57031 169.56055 L 153.19531 165.22461 C 155.18921 162.83926 157.06139 160.90543 157.35742 160.92773 z M 212.32031 168.98633 C 213.12692 169.02319 213.40376 169.37286 213.17969 170.05273 C 212.93785 170.78651 211.71271 171.53692 210.45703 171.7207 C 208.90577 171.94774 208.31451 171.6272 208.61328 170.7207 C 208.85512 169.98692 210.08026 169.23651 211.33594 169.05273 C 211.72375 168.99597 212.05144 168.97404 212.32031 168.98633 z M 204.10156 169.08008 C 206.74375 169.08867 206.98863 169.89614 205.19727 171.6875 C 203.90138 172.98339 197.43948 173.13356 193.39648 171.96289 C 191.08918 171.2948 191.05064 171.19251 192.89648 170.62305 C 193.99648 170.28369 197.48398 169.70308 200.64648 169.33203 C 202.07351 169.1646 203.22083 169.07721 204.10156 169.08008 z M 169.21094 169.75195 L 173.30273 171.83984 C 175.55377 172.98823 177.39648 174.09786 177.39648 174.30664 C 177.39648 174.51541 173.90898 176.94107 169.64648 179.69727 C 157.95478 187.25733 150.18307 192.74722 147.3418 195.45312 C 145.93671 196.79129 143.91171 197.80388 142.8418 197.70117 C 141.7719 197.59846 134.37148 197.23477 126.39648 196.89453 C 113.12654 196.32837 110.41249 195.86288 94.412109 191.41016 C 79.618769 187.29334 75.118049 185.55262 65.162109 180.0957 C 58.690559 176.54859 53.396484 173.45305 53.396484 173.2168 C 53.396484 172.56996 65.011624 173.93167 72.521484 175.45898 C 76.164834 176.19994 84.939834 176.86816 92.021484 176.94336 L 104.89648 177.08008 L 110.75977 180.98438 C 113.98495 183.13132 117.24745 184.91643 118.00977 184.95312 C 128.79638 185.47195 129.3618 185.31959 135.90625 180.10352 C 142.08912 175.17564 142.57064 174.98839 155.72656 172.40234 L 169.21094 169.75195 z M 216.25781 170.61328 C 216.6834 170.60141 216.97158 171.0936 217.44727 171.98242 C 218.90359 174.70358 218.02216 177.99144 214.80859 181.81055 C 211.71141 185.49134 208.99902 185.73623 206.89648 182.52734 C 205.08425 179.76154 205.8512 176.88672 208.40039 176.88672 C 209.38457 176.88672 211.57118 175.31383 213.25977 173.39062 C 214.93858 171.47856 215.71063 170.62854 216.25781 170.61328 z M 137.89648 175.74023 L 135.08984 178.31445 C 133.26522 179.98797 131.16708 180.87316 129.08984 180.84766 C 125.92554 180.80888 119.39648 178.50288 119.39648 177.42383 C 119.39648 177.11565 122.20898 176.91512 125.64648 176.97852 C 129.08398 177.04195 133.24648 176.78819 134.89648 176.41602 L 137.89648 175.74023 z M 180.8457 176.13477 C 181.72817 176.10494 182.66714 176.21645 183.89648 176.375 C 186.64648 176.72967 191.69053 176.96724 195.10547 176.90234 L 201.31445 176.7832 L 200.71875 181.81836 C 200.32231 185.16565 200.53872 187.35528 201.36719 188.35352 C 202.76973 190.04347 203.11184 189.86243 190.39648 194.14844 C 183.90456 196.33669 180.64774 196.73818 166.17188 197.14062 C 156.97383 197.39635 149.2268 197.38305 148.95508 197.11133 C 148.27411 196.43037 155.21771 191.24018 168.06641 182.82422 C 176.05529 177.59146 178.1983 176.22423 180.8457 176.13477 z " />
  </g>
</svg>
