<?xml version="1.0" standalone="no"?>
<!DOCTYPE svg PUBLIC "-//W3C//DTD SVG 20010904//EN"
 "http://www.w3.org/TR/2001/REC-SVG-20010904/DTD/svg10.dtd">
<svg version="1.0" xmlns="http://www.w3.org/2000/svg"
 width="1280.000000pt" height="1154.000000pt" viewBox="0 0 1280.000000 1154.000000"
 preserveAspectRatio="xMidYMid meet">
<g transform="translate(0.000000,1154.000000) scale(0.100000,-0.100000)"
fill="#000000" stroke="none">
<path d="M4446 11520 c-96 -38 -141 -106 -134 -206 4 -72 12 -84 141 -230 107
-120 182 -229 244 -352 66 -131 87 -223 81 -346 -10 -181 -92 -325 -377 -664
-259 -309 -324 -400 -405 -573 -71 -149 -97 -252 -103 -404 -9 -211 27 -366
132 -580 93 -191 300 -474 380 -520 53 -32 143 -34 195 -6 49 26 97 92 105
144 11 71 -9 118 -95 226 -104 130 -181 250 -235 364 -61 130 -79 202 -79 327
0 88 5 118 28 185 53 156 127 266 395 585 286 340 400 533 446 752 72 340 -38
678 -342 1053 -124 153 -187 213 -249 241 -65 28 -65 28 -128 4z"/>
<path d="M5500 11469 c-87 -26 -140 -100 -140 -196 0 -71 15 -97 128 -225 308
-349 403 -627 303 -883 -45 -117 -145 -263 -336 -490 -254 -302 -331 -410
-409 -575 -74 -156 -98 -252 -103 -415 -8 -211 29 -370 134 -580 84 -170 285
-447 364 -505 110 -79 267 -24 305 107 24 84 9 129 -83 244 -268 334 -364 594
-304 829 43 171 121 294 395 621 220 263 296 369 367 514 65 134 94 228 110
358 34 282 -88 610 -350 940 -82 103 -199 225 -231 242 -37 19 -109 26 -150
14z"/>
<path d="M6658 11471 c-84 -27 -136 -89 -145 -173 -7 -71 18 -129 90 -206 247
-262 378 -511 380 -717 0 -111 -18 -178 -82 -301 -59 -113 -114 -187 -325
-439 -299 -357 -404 -533 -463 -776 -27 -111 -24 -335 5 -454 57 -227 177
-451 371 -693 94 -116 140 -146 221 -146 104 0 186 74 197 177 7 71 -14 117
-108 232 -203 251 -301 469 -300 669 0 215 80 365 390 734 247 294 311 383
386 532 230 457 115 918 -363 1446 -35 40 -81 81 -102 93 -43 24 -113 34 -152
22z"/>
<path d="M1063 7332 c-91 -32 -163 -106 -194 -200 -14 -42 -6 -772 11 -1047
98 -1582 429 -2695 1091 -3665 44 -64 79 -121 79 -128 0 -9 -220 -12 -902 -14
-898 -3 -903 -3 -949 -24 -59 -27 -125 -87 -149 -133 -9 -20 -26 -62 -36 -94
-17 -55 -17 -59 0 -115 30 -94 49 -121 178 -257 68 -72 216 -236 329 -365 386
-440 602 -626 924 -796 385 -203 939 -356 1630 -449 66 -8 149 -21 185 -28 49
-9 567 -12 2145 -12 l2080 0 210 37 c923 162 1420 319 1834 580 248 156 418
312 826 753 66 71 184 196 263 277 167 171 186 204 186 318 1 124 -60 222
-172 277 l-57 28 -927 3 c-731 2 -928 5 -928 15 0 7 23 44 51 82 210 287 445
691 581 1003 20 45 43 82 50 82 7 0 31 -33 53 -72 116 -206 319 -421 521 -550
138 -89 342 -166 513 -194 150 -24 425 -15 571 19 356 84 665 261 945 542 409
408 681 971 759 1565 43 332 43 350 5 665 -28 227 -89 442 -180 635 -100 209
-203 354 -361 506 -456 439 -1095 523 -1712 225 -173 -84 -404 -249 -531 -380
-21 -23 -45 -41 -52 -41 -11 0 -13 70 -11 368 3 364 3 367 -20 417 -30 65 -92
128 -156 157 l-51 23 -4290 2 c-4098 2 -4292 2 -4342 -15z m10345 -988 c361
-74 635 -401 733 -874 22 -103 24 -139 23 -355 0 -217 -3 -253 -27 -377 -99
-507 -378 -975 -747 -1254 -112 -85 -298 -177 -425 -211 -127 -33 -330 -38
-435 -10 -296 79 -540 334 -653 682 -56 171 -77 314 -77 532 0 473 142 903
426 1284 245 329 564 540 894 592 64 10 218 5 288 -9z"/>
</g>
</svg>
